<?xml version="1.0" encoding="UTF-8" standalone="no"?>
<svg width="32px" height="32px" viewBox="0 0 32 32" version="1.1" xmlns="http://www.w3.org/2000/svg" xmlns:xlink="http://www.w3.org/1999/xlink">
    <!-- Generator: sketchtool 39.1 (31720) - http://www.bohemiancoding.com/sketch -->
    <title>42C31AF7-89BF-4657-8FA4-10EAFEC14B23</title>
    <desc>Created with sketchtool.</desc>
    <defs>
        <polygon id="path-1" points="15.96192 15.9801666 0 15.9801666 0 0.049730809 15.96192 0.049730809 15.96192 15.9801666"></polygon>
    </defs>
    <g id="inside" stroke="none" stroke-width="1" fill="none" fill-rule="evenodd">
        <g id="create-target-combo-displayed" transform="translate(-162.000000, -74.000000)">
            <g id="left" transform="translate(-3.000000, -2.000000)">
                <g id="create-target-title">
                    <g id="title-create" transform="translate(81.000000, 77.000000)">
                        <g id="Group" transform="translate(85.000000, 0.000000)">
                            <circle id="Oval-2" stroke="#000000" cx="15" cy="15" r="15"></circle>
                            <g id="Page-1" transform="translate(7.000000, 7.000000)">
                                <path d="M7.99922667,11.3469394 C8.20016,11.3469394 8.36456,11.5104543 8.36456,11.7103059 L8.36456,13.1818074 L8.67502667,13.1454707 C11.01296,12.8366092 12.8394933,11.0017413 13.1500267,8.69456332 L13.1864933,8.38576815 L11.7070267,8.38576815 C11.50616,8.38576815 11.34176,8.22225325 11.34176,8.0224017 C11.34176,7.82255016 11.50616,7.65910157 11.7070267,7.65910157 L13.1864933,7.65910157 L13.1500267,7.35024009 C12.8394933,5.02489377 10.9946933,3.20819416 8.67502667,2.89939899 L8.36456,2.84489403 L8.36456,4.31639551 C8.36456,4.51624705 8.20016,4.67969565 7.99922667,4.67969565 C7.79829333,4.67969565 7.63389333,4.51624705 7.63389333,4.31639551 L7.63389333,2.84489403 L7.32342667,2.88123067 C4.98549333,3.19002584 3.15896,5.02489377 2.84842667,7.33207177 L2.79369333,7.65910157 L4.27316,7.65910157 C4.47402667,7.65910157 4.63842667,7.82255016 4.63842667,8.0224017 C4.63842667,8.22225325 4.47402667,8.38576815 4.27316,8.38576815 L2.79369333,8.38576815 L2.83016,8.69456332 C3.14069333,11.0199096 4.98549333,12.8366092 7.30516,13.1454707 L7.61562667,13.1818074 L7.61562667,11.7103059 C7.63389333,11.5104543 7.79829333,11.3469394 7.99922667,11.3469394 M7.99922667,15.7977805 C7.79829333,15.7977805 7.63389333,15.6343319 7.63389333,15.4344804 L7.63389333,13.9448106 L7.39649333,13.9266423 C4.62016,13.6359491 2.37356,11.4196127 2.09956,8.65822667 L2.04476,8.38576815 L0.565293333,8.38576815 C0.364426667,8.38576815 0.200026667,8.22225325 0.200026667,8.0224017 C0.200026667,7.82255016 0.364426667,7.65910157 0.565293333,7.65910157 L2.06302667,7.65910157 L2.08129333,7.42291338 C2.37356,4.66152732 4.60189333,2.42702262 7.37822667,2.15456409 L7.61562667,2.13639577 L7.61562667,0.628557641 C7.61562667,0.428706096 7.78002667,0.265191196 7.98096,0.265191196 C8.18189333,0.265191196 8.34629333,0.428706096 8.34629333,0.628557641 L8.34629333,2.11822745 L8.58369333,2.13639577 C11.3600267,2.42702262 13.6066267,4.643359 13.8806267,7.40474505 L13.8988933,7.64093324 L15.3966267,7.64093324 C15.5974933,7.64093324 15.7618933,7.80438184 15.7618933,8.00423338 C15.7618933,8.20408492 15.5974933,8.36759982 15.3966267,8.36759982 L13.8988933,8.36759982 L13.8806267,8.6037217 C13.58836,11.3651078 11.3600267,13.5996125 8.58369333,13.8721373 L8.36456,13.9448106 L8.36456,15.4344804 C8.36456,15.6343319 8.20016,15.7977805 7.99922667,15.7977805" id="Fill-1" fill="#020202"></path>
                                <g id="Group-5" transform="translate(0.000000, 0.016577)">
                                    <mask id="mask-2" fill="white">
                                        <use xlink:href="#path-1"></use>
                                    </mask>
                                    <g id="Clip-4"></g>
                                    <path d="M3.01858667,8.56810781 L3.02885333,8.65470573 C3.32518667,10.8739597 5.09472,12.6338998 7.33165333,12.9316879 L7.41565333,12.9415678 L7.41645333,11.6756866 C7.44438667,11.3705384 7.70032,11.1314326 7.99918667,11.1314326 C8.31092,11.1314326 8.56452,11.3836673 8.56452,11.6937223 L8.56452,12.9415015 L8.65165333,12.9312901 C10.8828533,12.6365521 12.65232,10.8765457 12.9517867,8.65158927 L12.9616533,8.56810781 L11.7070533,8.56810781 C11.39532,8.56810781 11.1417867,8.31587315 11.1417867,8.00588444 C11.1417867,7.69582943 11.39532,7.44359476 11.7070533,7.44359476 L12.9616533,7.44359476 L12.9513867,7.35693054 C12.6549867,5.13774292 10.8854533,3.37780274 8.64852,3.07994835 L8.56452,3.06542696 L8.56452,4.29981194 C8.56452,4.60986696 8.31092,4.86203532 7.99918667,4.86203532 C7.68752,4.86203532 7.43392,4.60986696 7.43392,4.29981194 L7.43392,3.05203279 L7.34678667,3.06217788 C5.11558667,3.35698211 3.34612,5.1169886 3.04672,7.34187868 L3.02972,7.44359476 L4.27312,7.44359476 C4.58485333,7.44359476 4.83845333,7.69582943 4.83845333,8.00588444 C4.83845333,8.31587315 4.58485333,8.56810781 4.27312,8.56810781 L3.01858667,8.56810781 Z M8.16452,13.3889461 L8.16452,11.6937223 C8.16452,11.6030796 8.09038667,11.5292791 7.99918667,11.5292791 C7.90905333,11.5292791 7.82818667,11.6071244 7.81565333,11.7041989 L7.81565333,13.3889461 L7.28178667,13.3264179 C4.86312,13.0044938 2.95232,11.1039149 2.63198667,8.70417131 L2.56872,8.17026134 L4.27312,8.17026134 C4.36432,8.17026134 4.43845333,8.09652713 4.43845333,8.00588444 C4.43845333,7.91517545 4.36432,7.84144123 4.27312,7.84144123 L2.55752,7.84144123 L2.65118667,7.28279848 C2.97352,4.88663549 4.88438667,2.9861892 7.29705333,2.66744787 L7.83392,2.60458813 L7.83392,4.29981194 C7.83392,4.39045463 7.90805333,4.46418884 7.99918667,4.46418884 C8.09038667,4.46418884 8.16452,4.39045463 8.16452,4.29981194 L8.16452,2.59119396 L8.70572,2.68621296 C11.11932,3.0093306 13.0279867,4.90911381 13.3482533,7.30746496 L13.4114533,7.84144123 L11.7070533,7.84144123 C11.61592,7.84144123 11.5417867,7.91517545 11.5417867,8.00588444 C11.5417867,8.09652713 11.61592,8.17026134 11.7070533,8.17026134 L13.4114533,8.17026134 L13.3486533,8.70125377 C13.02492,11.1068988 11.1140533,13.0074114 8.70138667,13.3260201 L8.16452,13.3889461 Z M0.56532,7.84144123 C0.47412,7.84144123 0.399986667,7.91517545 0.399986667,8.00588444 C0.399986667,8.09652713 0.47412,8.17026134 0.56532,8.17026134 L2.20878667,8.17026134 L2.29858667,8.62214863 C2.56318667,11.2887146 4.71592,13.4293939 7.41738667,13.7122627 L7.83392,13.7439578 L7.83392,15.4178968 C7.83392,15.5085395 7.90805333,15.58234 7.99918667,15.58234 C8.09038667,15.58234 8.16452,15.5085395 8.16452,15.4178968 L8.16452,13.7848034 L8.54178667,13.6598133 L8.56412,13.6575588 C11.2450533,13.3944497 13.39732,11.2533063 13.68172,8.56638381 L13.7136533,8.15209302 L15.3965867,8.15209302 C15.4877867,8.15209302 15.56192,8.07835881 15.56192,7.98764981 C15.56192,7.89700712 15.4877867,7.82327291 15.3965867,7.82327291 L13.7136533,7.82327291 L13.6811867,7.40341227 C13.4170533,4.7411563 11.2642533,2.60041074 8.56278667,2.31760821 L8.14625333,2.2858468 L8.14625333,0.611974074 C8.14625333,0.521331386 8.07212,0.447530865 7.98098667,0.447530865 C7.88978667,0.447530865 7.81565333,0.521331386 7.81565333,0.611974074 L7.81565333,2.30394881 L7.39358667,2.33630699 C4.71685333,2.59901828 2.56458667,4.74022799 2.28018667,7.42715044 L2.24825333,7.84144123 L0.56532,7.84144123 Z M7.99918667,15.9801865 C7.68752,15.9801865 7.43392,15.7279518 7.43392,15.4178968 L7.43392,14.1124299 L7.38118667,14.1083852 C4.48958667,13.8057566 2.18905333,11.519996 1.90152,8.67108374 L1.88085333,8.56810781 L0.56532,8.56810781 C0.253586667,8.56810781 -1.33333333e-05,8.31587315 -1.33333333e-05,8.00588444 C-1.33333333e-05,7.69582943 0.253586667,7.44359476 0.56532,7.44359476 L1.87785333,7.44359476 L1.88192,7.39107903 C2.18658667,4.5117315 4.48958667,2.22159459 7.35858667,1.9400519 L7.41565333,1.93560928 L7.41565333,0.611974074 C7.41565333,0.301919057 7.66925333,0.0496843935 7.98098667,0.0496843935 C8.29265333,0.0496843935 8.54625333,0.301919057 8.54625333,0.611974074 L8.54625333,1.91737465 L8.59905333,1.92141943 C11.4939867,2.22444582 13.79652,4.51511319 14.0796533,7.36866701 L14.0840533,7.42542644 L15.3965867,7.42542644 C15.70832,7.42542644 15.96192,7.6775948 15.96192,7.98764981 C15.96192,8.29770483 15.70832,8.54993949 15.3965867,8.54993949 L14.0840533,8.54993949 L14.0799867,8.60245523 C13.77612,11.4742437 11.48432,13.7598717 8.62585333,14.0512279 L8.56452,14.0715844 L8.56452,15.4178968 C8.56452,15.7279518 8.31092,15.9801865 7.99918667,15.9801865 L7.99918667,15.9801865 Z" id="Fill-3" fill="#000000" mask="url(#mask-2)"></path>
                                </g>
                            </g>
                        </g>
                    </g>
                </g>
            </g>
        </g>
    </g>
</svg>