<?xml version="1.0" encoding="UTF-8" standalone="no"?>
<svg width="133px" height="78px" viewBox="0 0 133 78" version="1.1" xmlns="http://www.w3.org/2000/svg" xmlns:xlink="http://www.w3.org/1999/xlink">
    <!-- Generator: sketchtool 39.1 (31720) - http://www.bohemiancoding.com/sketch -->
    <title>558A3211-B9F7-4528-8E40-CCBEB5CC8FE9</title>
    <desc>Created with sketchtool.</desc>
    <defs>
        <polygon id="path-1" points="12.8528176 24.8663043 0 24.8663043 0 3.8616453e-15 12.8528176 3.8616453e-15 25.7056352 0 25.7056352 24.8663043 12.8528176 24.8663043"></polygon>
        <polygon id="path-3" points="12.8528176 24.8663043 0 24.8663043 0 3.8616453e-15 12.8528176 3.8616453e-15 25.7056352 0 25.7056352 24.8663043 12.8528176 24.8663043"></polygon>
    </defs>
    <g id="landing" stroke="none" stroke-width="1" fill="none" fill-rule="evenodd">
        <g id="home-menu-open" transform="translate(-283.000000, -70.000000)">
            <g id="Left" transform="translate(25.000000, 14.000000)">
                <g id="smilies" transform="translate(258.000000, 56.000000)">
                    <circle id="Oval-2" fill="#EFC638" cx="39" cy="39" r="39"></circle>
                    <circle id="Oval-2-Copy" fill="#2FBCF7" style="mix-blend-mode: multiply;" cx="94" cy="39" r="39"></circle>
                    <g id="Page-1" transform="translate(27.000000, 20.000000)">
                        <mask id="mask-2" fill="white">
                            <use xlink:href="#path-1"></use>
                        </mask>
                        <g id="Clip-2"></g>
                        <path d="M0.127510638,16.8755435 C-0.224319149,16.0445652 0.176744681,15.0902174 1.02368085,14.7445652 C1.23168085,14.6603261 1.44742553,14.6201087 1.65985106,14.6201087 C2.31040426,14.6201087 2.92776596,14.9978261 3.19274468,15.6255435 C4.72895745,19.2592391 8.53380851,21.6059783 12.8863191,21.6059783 C17.1403617,21.6059783 20.9230851,19.2576087 22.5229149,15.6217391 C22.8869149,14.7951087 23.8638511,14.4141304 24.7047021,14.7722826 C25.5455532,15.1304348 25.9327872,16.0896739 25.5687872,16.9157609 C23.4428723,21.7456522 18.4641489,24.8663043 12.885766,24.8663043 C7.18789362,24.8663043 2.17985106,21.7304348 0.127510638,16.8755435 M0.741,4.72880435 C0.741,2.12173913 2.90065957,0 5.55542553,0 C8.20908511,0 10.3687447,2.12119565 10.3687447,4.72880435 C10.3687447,5.47934783 9.7497234,6.0875 8.98576596,6.0875 C8.22180851,6.0875 7.60278723,5.47934783 7.60278723,4.72880435 C7.60278723,3.61956522 6.68448936,2.7173913 5.55542553,2.7173913 C4.42580851,2.7173913 3.50695745,3.61956522 3.50695745,4.72880435 C3.50695745,5.47934783 2.88793617,6.0875 2.12397872,6.0875 C1.36002128,6.0875 0.741,5.47880435 0.741,4.72880435 M16.0771277,4.74347826 C16.0771277,2.13586957 18.236234,0.014673913 20.8915532,0.014673913 C23.5452128,0.014673913 25.7043191,2.13532609 25.7043191,4.74347826 C25.7043191,5.49402174 25.0852979,6.10217391 24.3213404,6.10217391 C23.557383,6.10217391 22.9383617,5.49402174 22.9383617,4.74347826 C22.9383617,3.63423913 22.0200638,2.73206522 20.8915532,2.73206522 C19.7619362,2.73206522 18.8430851,3.63423913 18.8430851,4.74347826 C18.8430851,5.49402174 18.2240638,6.10217391 17.4601064,6.10217391 C16.6961489,6.10217391 16.0771277,5.49347826 16.0771277,4.74347826" id="Fill-1" fill="#000000" mask="url(#mask-2)"></path>
                    </g>
                    <g id="Page-1-Copy" transform="translate(79.000000, 20.000000)">
                        <mask id="mask-4" fill="white">
                            <use xlink:href="#path-3"></use>
                        </mask>
                        <g id="Clip-2"></g>
                        <path d="M0.127510638,16.8755435 C-0.224319149,16.0445652 0.176744681,15.0902174 1.02368085,14.7445652 C1.23168085,14.6603261 1.44742553,14.6201087 1.65985106,14.6201087 C2.31040426,14.6201087 2.92776596,14.9978261 3.19274468,15.6255435 C4.72895745,19.2592391 8.53380851,21.6059783 12.8863191,21.6059783 C17.1403617,21.6059783 20.9230851,19.2576087 22.5229149,15.6217391 C22.8869149,14.7951087 23.8638511,14.4141304 24.7047021,14.7722826 C25.5455532,15.1304348 25.9327872,16.0896739 25.5687872,16.9157609 C23.4428723,21.7456522 18.4641489,24.8663043 12.885766,24.8663043 C7.18789362,24.8663043 2.17985106,21.7304348 0.127510638,16.8755435 M0.741,4.72880435 C0.741,2.12173913 2.90065957,0 5.55542553,0 C8.20908511,0 10.3687447,2.12119565 10.3687447,4.72880435 C10.3687447,5.47934783 9.7497234,6.0875 8.98576596,6.0875 C8.22180851,6.0875 7.60278723,5.47934783 7.60278723,4.72880435 C7.60278723,3.61956522 6.68448936,2.7173913 5.55542553,2.7173913 C4.42580851,2.7173913 3.50695745,3.61956522 3.50695745,4.72880435 C3.50695745,5.47934783 2.88793617,6.0875 2.12397872,6.0875 C1.36002128,6.0875 0.741,5.47880435 0.741,4.72880435 M16.0771277,4.74347826 C16.0771277,2.13586957 18.236234,0.014673913 20.8915532,0.014673913 C23.5452128,0.014673913 25.7043191,2.13532609 25.7043191,4.74347826 C25.7043191,5.49402174 25.0852979,6.10217391 24.3213404,6.10217391 C23.557383,6.10217391 22.9383617,5.49402174 22.9383617,4.74347826 C22.9383617,3.63423913 22.0200638,2.73206522 20.8915532,2.73206522 C19.7619362,2.73206522 18.8430851,3.63423913 18.8430851,4.74347826 C18.8430851,5.49402174 18.2240638,6.10217391 17.4601064,6.10217391 C16.6961489,6.10217391 16.0771277,5.49347826 16.0771277,4.74347826" id="Fill-1" fill="#000000" mask="url(#mask-4)"></path>
                    </g>
                </g>
            </g>
        </g>
    </g>
</svg>